<?xml version="1.0" encoding="UTF-8"?>
<svg width="24px" height="24px" viewBox="0 0 24 24" version="1.1" xmlns="http://www.w3.org/2000/svg" xmlns:xlink="http://www.w3.org/1999/xlink">
    <title>Icon / Bank</title>
    <g id="Icon-/-Bank" stroke="none" stroke-width="1" fill="none" fill-rule="evenodd">
        <polygon id="Container" points="0 0 24 0 24 24 0 24"></polygon>
        <path d="M6.5,10 L4.5,10 L4.5,17 L6.5,17 L6.5,10 Z M12.5,10 L10.5,10 L10.5,17 L12.5,17 L12.5,10 Z M21,19 L2,19 L2,21 L21,21 L21,19 Z M18.5,10 L16.5,10 L16.5,17 L18.5,17 L18.5,10 Z M11.5,3.26 L16.71,6 L6.29,6 L11.5,3.26 M11.5,1 L2,6 L2,8 L21,8 L21,6 L11.5,1 Z" id="Shape" fill="#6F4BD5" fill-rule="nonzero"></path>
    </g>
</svg>