<?xml version="1.0" encoding="UTF-8"?>
<svg width="24px" height="24px" viewBox="0 0 24 24" version="1.1" xmlns="http://www.w3.org/2000/svg" xmlns:xlink="http://www.w3.org/1999/xlink">
    <title>Icon / Home loan</title>
    <g id="Icon-/-Home-loan" stroke="none" stroke-width="1" fill="none" fill-rule="evenodd">
        <rect id="Container" x="0" y="0" width="24" height="24"></rect>
        <path d="M21,6.5 L21,14 L19,14 L19,7.5 L14,4 L9,7.5 L9,9 L7,9 L7,6.5 L14,1.5 L21,6.5 Z M15.5,7 L14.5,7 L14.5,8 L15.5,8 L15.5,7 Z M13.5,7 L12.5,7 L12.5,8 L13.5,8 L13.5,7 Z M15.5,9 L14.5,9 L14.5,10 L15.5,10 L15.5,9 Z M13.5,9 L12.5,9 L12.5,10 L13.5,10 L13.5,9 Z M19,16 L17,16 C17,14.8 16.25,13.72 15.13,13.3 L8.97,11 L1,11 L1,22 L7,22 L7,20.56 L14,22.5 L22,20 L22,19 C22,17.34 20.66,16 19,16 Z M3,20 L3,13 L5,13 L5,20 L3,20 Z M13.97,20.41 L7,18.48 L7,13 L8.61,13 L14.43,15.17 C14.77,15.3 15,15.63 15,16 C15,16 13.01,15.95 12.7,15.85 L10.32,15.06 L9.69,16.96 L12.07,17.75 C12.58,17.92 13.11,18.01 13.65,18.01 L19,18.01 C19.39,18.01 19.74,18.24 19.9,18.57 L13.97,20.41 Z" id="Shape" fill="#6F4BD5" fill-rule="nonzero"></path>
    </g>
</svg>