<?xml version="1.0" encoding="UTF-8"?>
<svg width="24px" height="24px" viewBox="0 0 24 24" version="1.1" xmlns="http://www.w3.org/2000/svg" xmlns:xlink="http://www.w3.org/1999/xlink">
    <title>Icon / Key</title>
    <g id="Icon-/-Key" stroke="none" stroke-width="1" fill="none" fill-rule="evenodd">
        <rect id="Container" x="0" y="0" width="24" height="24"></rect>
        <path d="M12.65,10 C11.83,7.67 9.61,6 7,6 C3.69,6 1,8.69 1,12 C1,15.31 3.69,18 7,18 C9.61,18 11.83,16.33 12.65,14 L17,14 L17,18 L21,18 L21,14 L23,14 L23,10 L12.65,10 Z M7,14 C5.9,14 5,13.1 5,12 C5,10.9 5.9,10 7,10 C8.1,10 9,10.9 9,12 C9,13.1 8.1,14 7,14 Z" id="Shape" fill="#6F4BD5" fill-rule="nonzero"></path>
    </g>
</svg>